<svg width="46" height="46" viewBox="0 0 46 46" fill="none" xmlns="http://www.w3.org/2000/svg">
<path fill-rule="evenodd" clip-rule="evenodd" d="M46 23C46 35.7025 35.7025 46 23 46C10.2974 46 0 35.7025 0 23C0 10.2974 10.2974 0 23 0C35.7025 0 46 10.2974 46 23ZM17.582 9.93655C18.9839 9.87275 19.4318 9.85714 23.0013 9.85714H22.9972C26.5677 9.85714 27.014 9.87275 28.4159 9.93655C29.8151 10.0006 30.7707 10.2221 31.6085 10.5472C32.4738 10.8826 33.2049 11.3316 33.936 12.0627C34.667 12.7932 35.1161 13.5265 35.4529 14.3909C35.776 15.2266 35.9978 16.1817 36.0635 17.5808C36.1265 18.9828 36.1429 19.4307 36.1429 23.0001C36.1429 26.5696 36.1265 27.0164 36.0635 28.4183C35.9978 29.817 35.776 30.7723 35.4529 31.6083C35.1161 32.4724 34.667 33.2057 33.936 33.9362C33.2057 34.6673 32.4735 35.1174 31.6094 35.4531C30.7731 35.7781 29.817 35.9997 28.4178 36.0637C27.0159 36.1275 26.5693 36.1431 22.9996 36.1431C19.4305 36.1431 18.9828 36.1275 17.5809 36.0637C16.182 35.9997 15.2266 35.7781 14.3904 35.4531C13.5265 35.1174 12.7933 34.6673 12.063 33.9362C11.3322 33.2057 10.8831 32.4724 10.5472 31.608C10.2224 30.7723 10.0009 29.8172 9.93657 28.4181C9.87305 27.0161 9.85717 26.5696 9.85717 23.0001C9.85717 19.4307 9.8736 18.9825 9.9363 17.5806C9.99928 16.1819 10.2211 15.2266 10.5469 14.3907C10.8837 13.5265 11.3327 12.7932 12.0638 12.0627C12.7944 11.3319 13.5276 10.8828 14.392 10.5472C15.2277 10.2221 16.1828 10.0006 17.582 9.93655ZM22.5632 12.2255H22.5629H22.5627H22.5624C22.2969 12.2254 22.0509 12.2253 21.8222 12.2256V12.2223C19.3727 12.2251 18.9028 12.2415 17.6904 12.2963C16.4089 12.3551 15.7132 12.5687 15.2499 12.7494C14.6366 12.9882 14.1985 13.273 13.7385 13.733C13.2785 14.193 12.9931 14.6311 12.7549 15.2444C12.575 15.7077 12.3609 16.4032 12.3023 17.6846C12.2393 19.0701 12.2267 19.4841 12.2267 22.9938C12.2267 26.5036 12.2393 26.9198 12.3023 28.3053C12.3606 29.5867 12.575 30.2822 12.7549 30.7449C12.9937 31.3585 13.2785 31.7955 13.7385 32.2555C14.1985 32.7155 14.6366 33.0003 15.2499 33.2385C15.7135 33.4184 16.4089 33.6325 17.6904 33.6917C19.0759 33.7547 19.4918 33.7684 23.0013 33.7684C26.5104 33.7684 26.9266 33.7547 28.3121 33.6917C29.5936 33.6331 30.2896 33.4195 30.7523 33.2388C31.366 33.0006 31.8027 32.7158 32.2627 32.2558C32.7227 31.7961 33.008 31.3594 33.2462 30.746C33.4261 30.2833 33.6402 29.5878 33.6988 28.3063C33.7618 26.9209 33.7755 26.5047 33.7755 22.9971C33.7755 19.4896 33.7618 19.0734 33.6988 17.6879C33.6405 16.4065 33.4261 15.711 33.2462 15.2482C33.0075 14.6349 32.7227 14.1968 32.2627 13.7368C31.803 13.2768 31.3657 12.992 30.7523 12.7538C30.289 12.5739 29.5936 12.3598 28.3121 12.3012C26.9264 12.2382 26.5104 12.2256 23.0013 12.2256L22.5632 12.2255ZM30.0169 14.4079C29.1462 14.4079 28.4397 15.1135 28.4397 15.9845C28.4397 16.8552 29.1462 17.5617 30.0169 17.5617C30.8876 17.5617 31.594 16.8552 31.594 15.9845C31.594 15.1138 30.8876 14.4079 30.0169 14.4079ZM23.0013 16.2507C19.2738 16.2507 16.2518 19.2727 16.2518 23.0001C16.2518 26.7275 19.2738 29.7482 23.0013 29.7482C26.7287 29.7482 29.7496 26.7275 29.7496 23.0001C29.7496 19.2727 26.7287 16.2507 23.0013 16.2507ZM23.0013 18.6191C25.4207 18.6191 27.3823 20.5805 27.3823 23.0001C27.3823 25.4195 25.4207 27.3811 23.0013 27.3811C20.5816 27.3811 18.6203 25.4195 18.6203 23.0001C18.6203 20.5805 20.5816 18.6191 23.0013 18.6191Z" fill="#3FC2BB"/>
</svg>
