<svg width="21" height="19" viewBox="0 0 21 19" fill="none" xmlns="http://www.w3.org/2000/svg">
<path d="M10.5 5.41406C7.673 5.41406 5.37305 7.71401 5.37305 10.541C5.37305 13.368 7.673 15.668 10.5 15.668C13.327 15.668 15.627 13.368 15.627 10.541C15.627 7.71401 13.327 5.41406 10.5 5.41406ZM10.5 14.0273C8.57764 14.0273 7.01367 12.4634 7.01367 10.541C7.01367 8.61865 8.57764 7.05469 10.5 7.05469C12.4224 7.05469 13.9863 8.61865 13.9863 10.541C13.9863 12.4634 12.4224 14.0273 10.5 14.0273Z" fill="white"/>
<path d="M18.5391 2.95312H15.5213C15.4258 2.95312 15.3397 2.90099 15.2954 2.81667L14.4606 1.0623C14.4583 1.05751 14.456 1.05275 14.4535 1.04799C14.1304 0.401584 13.4806 0 12.7579 0H8.30058C7.57784 0 6.92807 0.401584 6.60491 1.04803C6.60249 1.05279 6.60019 1.05755 6.5979 1.06235L5.76298 2.81679C5.71869 2.90099 5.63263 2.95312 5.53711 2.95312H2.46094C1.10398 2.95312 0 4.0571 0 5.41406V16.4883C0 17.8452 1.10398 18.9492 2.46094 18.9492H18.5391C19.896 18.9492 21 17.8452 21 16.4883V5.41406C21 4.0571 19.896 2.95312 18.5391 2.95312ZM19.3594 16.4882C19.3594 16.9406 18.9914 17.3086 18.5391 17.3086H2.46094C2.00862 17.3086 1.64062 16.9406 1.64062 16.4882V5.41406C1.64062 4.96174 2.00862 4.59375 2.46094 4.59375H5.53711C6.2598 4.59375 6.90957 4.19221 7.23278 3.5458C7.2352 3.54104 7.23749 3.53624 7.23983 3.53145L8.07475 1.777C8.119 1.69276 8.20505 1.64062 8.30058 1.64062H12.7579C12.8534 1.64062 12.9394 1.69276 12.9837 1.77696L13.8186 3.5314C13.821 3.5362 13.8233 3.541 13.8257 3.54576C14.1489 4.19217 14.7986 4.59371 15.5213 4.59371H18.5391C18.9914 4.59371 19.3594 4.9617 19.3594 5.41402V16.4882Z" fill="white"/>
<path d="M17.7188 6.23438H16.0781V7.875H17.7188V6.23438Z" fill="white"/>
</svg>
